<svg width="140" height="27" fill="none" xmlns="http://www.w3.org/2000/svg"><path fill-rule="evenodd" clip-rule="evenodd" d="M39.5 0H22.9L22 2c6.6.3 11.8 5.3 11.8 11.4 0 5.7-4.5 10.4-10.4 11.3l-.7 2.2h16.7c.9 0 1.8-.4 2.5-1 .6-.7 1-1.7 1-2.6V3.6c0-2-1.6-3.6-3.5-3.6ZM9 13.4c0 5 3.5 9.4 8.4 11l-.9 2.5h-13c-2 0-3.6-1.7-3.6-3.6V3.6C0 1.6 1.6 0 3.5 0H17l-.8 2.4C12.2 4.6 9 9 9 13.4Zm122.5 3h-7.8V27h7.7c2.8 0 3-2.8 3-4.2v-3.2c0-1.8-1-3.2-3-3.2Zm.5 6.7v-3c0-.7-.5-1.5-1.2-1.5h-4.7v6.2h4.6c.8 0 1.3-.8 1.3-1.7Zm-11.6-.2c.6-.5 1-1.2 1-3.2 0-2.1-1.5-3.3-3.2-3.3h-7V27h2.4v-3.1h4c1 0 1.5.7 1.5 1.2V27h2.3v-2.2c0-.6-.2-1.6-1-2Zm-6.8-1.2h4.4c.9 0 1.1-1.1 1.1-1.7 0-.5-.2-1.4-1.4-1.4h-4v3Zm-8.9-5.3h-3l-4.3 9V27h1.9l.8-2h6l1 2h2.4l-4.8-10.6Zm-1.5 2-2 4.5h4l-2-4.5ZM86.6 27V16.4H89v4h1l4.2-4h3.2l-5 5 4.1 4.2V27h-1.8l-4.5-4.4H89V27h-2.4ZM74 24.5v-5.6c0-1.2 1.3-2.5 2.4-2.5h5.8c1.5 0 2.4 1.6 2.4 2.5v1h-2.4c0-.5-.5-1.3-.9-1.3h-4.1c-1 0-.8 1-.8 1v4.2c0 .8.4 1 .7 1h4.1c1 0 1-.8 1-1.3h2.4v1c0 1.6-1.1 2.5-2.4 2.5h-5.8c-1.8 0-2.4-1.4-2.4-2.5Zm-5.8-8.1H65L60.2 27h2.5l.9-2h6l.9 2h2.4l-4.7-10.6Zm-1.6 2-2 4.5h4l-2-4.6Zm-9.1-2h-7.6V27h2.4v-3h5.2c1.4 0 3-.8 3-3.8s-1.7-3.8-3-3.8Zm-5.2 5.4H57c1 0 1-1.1 1-1.6s0-1.6-1.1-1.6h-4.5v3.2ZM50 .2v10.6h2.4V6.5h6.3v4.3H61V.2h-2.4v4.1h-6.3V.2H50Zm15.2 0h8v2.2h-7.3v2h6v2.2h-6v2h7.3v2.2H65c-1 0-1.6-.8-1.6-1.4V1.8c0-1 .6-1.6 1.7-1.6Zm27.3 0v9c0 .8.7 1.6 1.7 1.6h7.1V8.6h-6.4V.2h-2.4Zm27.4 2.2v8.4h-2.4V2.4h-3.5V.2h9.4v2.2h-3.5Zm11.1 8.4V2.4h3.5V.2H125v2.2h3.5v8.4h2.4ZM104.1.2h8v2.2H105v2h6v2.2h-6v2h7.3v2.2H104c-1 0-1.5-.8-1.5-1.4V1.8c0-1 .6-1.6 1.6-1.6ZM86 10.8c-.7 0-1.4-1-1.5-1.6l-1.8-5.6-2.3 7.2h-1.5c-.7 0-1.3-1.1-1.5-1.6l-2.8-9h2.4L79 7.4 81.5.2h2.2l2.4 7.2L88.3.2h2.4l-3.4 10.6h-1.4ZM137.7 0c.6 0 1.2.2 1.6.7.5.4.7 1 .7 1.7 0 .6-.2 1.2-.7 1.6-.4.5-1 .7-1.6.7-.7 0-1.2-.2-1.7-.7-.4-.4-.7-1-.7-1.6 0-.7.3-1.3.7-1.7.5-.5 1-.7 1.7-.7Zm1.4 3.8a2 2 0 0 1-1.4.6c-.6 0-1-.2-1.5-.6a2 2 0 0 1-.5-1.4c0-.6.2-1 .5-1.5a2 2 0 0 1 1.5-.6c.5 0 1 .2 1.4.6.4.4.6.9.6 1.5 0 .5-.2 1-.6 1.4ZM18.3 0 12 18h2.7l3-8.7h1c.5 0 .5.5.4 1L16.3 18h2.8l2.8-8c.4-1.4-.4-2-2-2h-1.7L21 0h-2.7Zm6.2 7.9h4.3c1.3 0 2.7.7 2 2.6l-2 5.7c-.4 1-.7 1.8-2.7 1.8h-2.5l-2.8 8h-2.6l6.3-18.1ZM28 10l-2 5.8c0 .3-.3.8-.8.8h-1.2l2.6-7.3h1.1c.5 0 .4.3.3.7Z" fill="#fff"/></svg>