<svg width="145" height="31" fill="none" xmlns="http://www.w3.org/2000/svg"><path fill-rule="evenodd" clip-rule="evenodd" d="M15 15H0V0h15v15Zm130-1v-2.5h-3.1V7.6h-.1l-3 1v3H134V9.8c0-.8.2-1.4.5-1.8.3-.4.8-.6 1.4-.6.5 0 1 .2 1.4.4h.1V5.3c-.5-.2-1-.3-1.8-.3-.9 0-1.7.2-2.5.6-.7.4-1.3 1-1.7 1.7a5 5 0 0 0-.6 2.4v1.8h-2.2v2.6h2.2v10.6h3.2V14h4.6v6.7c0 2.8 1.4 4.2 4 4.2a6.4 6.4 0 0 0 2.3-.5V22h-.1c-.2.2-.4.3-.7.3l-.6.1c-.6 0-1-.1-1.3-.4-.3-.4-.4-1-.4-1.7V14h3.1Zm-23.3 8.4c-1.1 0-2-.3-2.6-1-.7-.8-1-1.9-1-3.2a5 5 0 0 1 1-3.3c.6-.7 1.5-1.1 2.6-1.1s2 .3 2.6 1c.6.8 1 1.9 1 3.3s-.4 2.5-1 3.2c-.5.8-1.4 1.1-2.6 1.1Zm-5-9.3a7 7 0 0 1 5.2-1.9c2 0 3.6.6 4.8 1.8a6.9 6.9 0 0 1 1.7 5 7 7 0 0 1-1.8 5c-1.2 1.4-3 2-5 2s-3.7-.6-5-1.8a6.7 6.7 0 0 1-1.7-5 7 7 0 0 1 1.8-5Zm-6.9-1.9c-1.5 0-2.7.4-3.6 1.1-1 .8-1.4 1.8-1.4 3 0 .6 0 1.1.3 1.6.2.5.5.9.9 1.2.4.4 1 .7 2 1l1.5.8.7.6.2.7c0 1-.7 1.3-2 1.3-.5 0-1.1 0-1.8-.3-.6-.2-1.2-.5-1.7-.9h-.1v3c.4.2 1 .4 1.7.5a9 9 0 0 0 1.7.2 6 6 0 0 0 3.9-1.1c1-.8 1.4-1.8 1.4-3 0-.9-.2-1.7-.7-2.3A6.6 6.6 0 0 0 110 17c-1-.4-1.6-.7-1.8-1-.3-.2-.4-.6-.4-1s.2-.7.5-1c.3-.2.7-.3 1.3-.3a5.5 5.5 0 0 1 3 .9h.1v-2.8l-1.4-.4-1.6-.2Zm-16 10.1c.7.8 1.6 1.1 2.8 1.1 1.1 0 2-.3 2.6-1 .6-.8.9-1.9.9-3.3s-.4-2.5-1-3.2c-.6-.8-1.5-1.1-2.6-1.1-1 0-2 .4-2.6 1.1a5 5 0 0 0-1 3.3c0 1.3.4 2.4 1 3.1Zm2.9-10a7 7 0 0 0-5.1 1.8 7 7 0 0 0-1.9 5.2c0 2 .6 3.7 1.8 4.9a6.6 6.6 0 0 0 4.9 1.8c2.1 0 3.8-.6 5-2a7 7 0 0 0 1.9-5c0-2.1-.6-3.8-1.8-5a6.4 6.4 0 0 0-4.8-1.8Zm-11.8.2v2.3c.4-.7.7-1.3 1.3-1.7a3.2 3.2 0 0 1 3.3-.6v3.1h-.1l-.7-.4h-1c-.8 0-1.5.3-2 1S85 16.8 85 18v6.7h-3V11.5h3Zm-8.6-.3c-1.4 0-2.7.3-3.8 1-1 .5-2 1.4-2.5 2.5a8 8 0 0 0 0 7.1c.5 1 1.3 1.8 2.3 2.4a7 7 0 0 0 3.4.8c1.5 0 2.7-.3 3.8-.9v-2.8h-.1a5.8 5.8 0 0 1-3 1.1c-1.3 0-2.2-.3-3-1-.7-.8-1-1.9-1-3.2 0-1.3.4-2.4 1.1-3.2.7-.8 1.7-1.2 3-1.2 1 0 2 .3 2.9 1v.1-3c-.3-.2-.8-.4-1.4-.5l-1.7-.2Zm-12.4.3H67v13.2h-3V11.5ZM65.5 6c-.5 0-1 .2-1.3.6-.4.3-.6.7-.6 1.2 0 .6.2 1 .6 1.3.3.3.8.5 1.3.5s1-.2 1.3-.5c.4-.3.6-.7.6-1.3 0-.4-.2-.9-.5-1.2-.4-.4-.9-.6-1.4-.6Zm-7.7 18.8V10.6h-.1l-5.7 14h-2.2l-5.7-14H44v14h-3V6.4h4.6L51 20l5.5-13.7H61v18.4h-3.1ZM16 15h15V0H16v15Zm-1 16H0V16h15v15Zm1 0h15V16H16v15Z" fill="#fff"/></svg>