<svg width="137" height="26" fill="none" xmlns="http://www.w3.org/2000/svg"><path fill-rule="evenodd" clip-rule="evenodd" d="M14.5 0v3.5h.7c8.9-.3 14.7 7.3 14.7 7.3s-6.7 8.1-13.6 8.1l-1.7-.1v2.1l1.4.1c6.5 0 11.1-3.3 15.6-7.2l2 1.2 2.5 1.5A38.6 38.6 0 0 1 14.6 23V26H39V0H14.5Zm0 7.8V5.4h.7c6.4-.2 10.6 5.5 10.6 5.5s-4.5 6.3-9.4 6.3c-.6 0-1.2 0-1.8-.3V9.8c2.3.3 2.9 1.3 4.2 3.5l.2.4 3.3-2.8S20 7.7 15.8 7.7h-1.3Zm0 0v2c-2.5-.3-4.4 2-4.4 2s1.1 4 4.4 5.1v1.9C8.6 17.7 7 11.5 7 11.5s2.9-3.2 7.6-3.7Zm0-2.4C7.5 6 4 11.2 4 11.2s2.7 8.7 10.5 9.7v2C3.8 22 0 10.8 0 10.8S6.7 4 14.6 3.5v2ZM46 5v17h4.9V8.8h3.7c1.3 0 2.1.3 2.7 1 .8.8 1.1 2 1.1 4.4V22h4.7v-9.4C63.1 6 58.8 5 54.6 5H46Zm37.8 0v17h4.8V5h-4.8Zm7.8 17V5h6.7c3.9 0 6.4.5 8.2 2.9a10 10 0 0 1 1.6 5.8c0 2.6-.7 5-1.7 6-1.5 1.6-2.9 2.3-7 2.3h-7.8Zm4.8-13.3h2c3 0 5 1.3 5 4.8s-2 4.9-5 4.9h-2V8.7Zm-23.5 9.8 4-13.5h5l-5.6 17h-7L63.8 5H69L73 18.5Zm37.4 3.5h4.8V5h-4.8v17Zm6.8 0 6.7-17h6.4l6.8 17h-5.2l-1-3h-8l-1 3h-4.7ZM126.9 8l3 8h-6l3-8Z" fill="#fff"/></svg>