<svg width="131" height="17" fill="none" xmlns="http://www.w3.org/2000/svg"><path fill-rule="evenodd" clip-rule="evenodd" d="M56.6 11h8.6l-4.6-7.3L52.2 17h-3.8L58.6 1c.5-.6 1.2-1 2-1s1.6.4 2 1l10.3 16H69l-1.8-3h-8.7l-2-3Zm39.7 3V.2H93v15.2c0 .4.2.8.5 1.1.3.3.7.5 1.2.5h14.8l1.9-3H96.3ZM48.3 6c0 3.1-2.6 5.6-5.7 5.6H41l6.5 5.5H43l-9.7-8.4h9.2c1.5 0 2.7-1.2 2.7-2.7 0-1.5-1.2-2.8-2.7-2.8H31.6V17h-3.2V.2h14.2c3.1 0 5.7 2.5 5.7 5.7ZM8.4 17A8.4 8.4 0 1 1 8.4.2h9.8a8.4 8.4 0 1 1 0 16.8H8.4Zm15-8.4c0 3-2.4 5.4-5.4 5.4H8.7a5.4 5.4 0 1 1 0-10.9H18c3 0 5.5 2.5 5.5 5.5ZM79.7 17a8.4 8.4 0 1 1 0-16.8h11.7l-2 3h-9.5c-3 0-5.4 2.4-5.4 5.4 0 3 2.4 5.4 5.4 5.4h11.7l-1.9 3h-10Zm34.5-7c.6 2.4 2.7 4 5.2 4H131l-2 3h-10a8.4 8.4 0 1 1 0-16.8h11.7l-1.9 3h-9.5a5.5 5.5 0 0 0-5.2 3.9h15.7l-1.9 3h-13.8Z" fill="#fff"/></svg>