<svg width="106" height="106" fill="none" xmlns="http://www.w3.org/2000/svg"><circle cx="53" cy="53" r="53" fill="#36536B"/><mask id="a" style="mask-type:alpha" maskUnits="userSpaceOnUse" x="0" y="0" width="106" height="106"><circle cx="53" cy="53" r="53" fill="#fff"/></mask><path fill-rule="evenodd" clip-rule="evenodd" d="M73 45.4v.3c0 .5-.5 1-1 1H34a1 1 0 0 1-1-1v-.3c0-3 2.4-5.4 5.4-5.4h29.2c3 0 5.3 2.4 5.3 5.4Zm-40 5.5v10.3c0 3 2.4 5.4 5.4 5.4h29.2c3 0 5.3-2.4 5.3-5.4V51c0-.5-.4-1-.9-1H34a1 1 0 0 0-1 1Zm10 6.5h-2.5a1.6 1.6 0 1 1 0-3.2H43a1.6 1.6 0 0 1 0 3.2Z" fill="#fff"/></svg>