<svg width="129" height="17" fill="none" xmlns="http://www.w3.org/2000/svg"><path fill-rule="evenodd" clip-rule="evenodd" d="M3.4 3.4C1.7 3.1.4 1.5 0 0h21c-.4 1.5-1.6 3-3.4 3.4h-5.2l-.3.1V17H9V3.5H3.4Zm29 0H45c1.8-.3 3.1-1.9 3.4-3.4H29c.4 1.5 1.7 3 3.4 3.4Zm93.2 0h-12.5c-1.7-.4-3-1.9-3.4-3.4H129c-.4 1.5-1.6 3-3.4 3.4ZM110.2 17V6.7h18.4V17h-3.3v-6.8h-11.8V17h-3.3Zm-9.9 0c1.7-.7 2.6-2 3-3.3H88.5V0h-3.3v17h15ZM72.6 3.4H61v3.3h15V17H56.9a6.7 6.7 0 0 1 4.2-3.4h11.8V10h-15V0H76c-.3 1.4-1.8 2.8-3.5 3.3ZM44.9 10H32.4c-1.7-.4-3-1.9-3.4-3.4h19.3c-.3 1.5-1.6 3-3.4 3.4ZM32.4 17H45c1.8-.3 3.1-2 3.4-3.4H29c.4 1.5 1.7 3 3.4 3.4Z" fill="#fff"/></svg>